<mxfile host="app.diagrams.net" modified="2023-10-05T11:49:08.684Z" agent="Mozilla/5.0 (Windows NT 10.0; Win64; x64) AppleWebKit/537.36 (KHTML, like Gecko) Chrome/117.0.0.0 Safari/537.36 Edg/117.0.2045.47" etag="K7bHkzpB73gLFSpqRWUs" version="22.0.2" type="device">
  <diagram name="Halaman-1" id="ppoIqxPWNPbGwZ7_-DPx">
    <mxGraphModel dx="1426" dy="785" grid="1" gridSize="10" guides="1" tooltips="1" connect="1" arrows="1" fold="1" page="1" pageScale="1" pageWidth="1654" pageHeight="1169" math="0" shadow="0">
      <root>
        <mxCell id="0" />
        <mxCell id="1" parent="0" />
        <mxCell id="hZ1CCM0CToP49CCM5TCr-1" value="User" style="shape=umlActor;verticalLabelPosition=bottom;verticalAlign=top;html=1;outlineConnect=0;" vertex="1" parent="1">
          <mxGeometry x="120" y="250" width="60" height="100" as="geometry" />
        </mxCell>
        <mxCell id="hZ1CCM0CToP49CCM5TCr-2" value="" style="endArrow=classic;html=1;rounded=0;" edge="1" parent="1">
          <mxGeometry width="50" height="50" relative="1" as="geometry">
            <mxPoint x="210" y="260" as="sourcePoint" />
            <mxPoint x="300" y="260" as="targetPoint" />
          </mxGeometry>
        </mxCell>
        <mxCell id="hZ1CCM0CToP49CCM5TCr-3" value="" style="endArrow=classic;html=1;rounded=0;" edge="1" parent="1">
          <mxGeometry width="50" height="50" relative="1" as="geometry">
            <mxPoint x="300" y="340" as="sourcePoint" />
            <mxPoint x="210" y="340" as="targetPoint" />
          </mxGeometry>
        </mxCell>
        <mxCell id="hZ1CCM0CToP49CCM5TCr-4" value="" style="rounded=1;whiteSpace=wrap;html=1;" vertex="1" parent="1">
          <mxGeometry x="320" y="240" width="120" height="130" as="geometry" />
        </mxCell>
        <mxCell id="hZ1CCM0CToP49CCM5TCr-5" value="" style="rounded=1;whiteSpace=wrap;html=1;" vertex="1" parent="1">
          <mxGeometry x="640" y="235" width="170" height="130" as="geometry" />
        </mxCell>
        <mxCell id="hZ1CCM0CToP49CCM5TCr-6" value="Web&lt;br&gt;Browser" style="rounded=0;whiteSpace=wrap;html=1;" vertex="1" parent="1">
          <mxGeometry x="330" y="250" width="100" height="110" as="geometry" />
        </mxCell>
        <mxCell id="hZ1CCM0CToP49CCM5TCr-7" value="URL" style="text;html=1;align=center;verticalAlign=middle;resizable=0;points=[];autosize=1;strokeColor=none;fillColor=none;" vertex="1" parent="1">
          <mxGeometry x="230" y="228" width="50" height="30" as="geometry" />
        </mxCell>
        <mxCell id="hZ1CCM0CToP49CCM5TCr-8" value="Client" style="text;html=1;align=center;verticalAlign=middle;resizable=0;points=[];autosize=1;strokeColor=none;fillColor=none;" vertex="1" parent="1">
          <mxGeometry x="355" y="210" width="50" height="30" as="geometry" />
        </mxCell>
        <mxCell id="hZ1CCM0CToP49CCM5TCr-9" value="" style="endArrow=classic;startArrow=classic;html=1;rounded=0;" edge="1" parent="1">
          <mxGeometry width="50" height="50" relative="1" as="geometry">
            <mxPoint x="430" y="304" as="sourcePoint" />
            <mxPoint x="650" y="306" as="targetPoint" />
          </mxGeometry>
        </mxCell>
        <mxCell id="hZ1CCM0CToP49CCM5TCr-13" value="" style="endArrow=classic;html=1;rounded=0;" edge="1" parent="1">
          <mxGeometry width="50" height="50" relative="1" as="geometry">
            <mxPoint x="490" y="258" as="sourcePoint" />
            <mxPoint x="580" y="258" as="targetPoint" />
          </mxGeometry>
        </mxCell>
        <mxCell id="hZ1CCM0CToP49CCM5TCr-14" value="" style="endArrow=classic;html=1;rounded=0;" edge="1" parent="1">
          <mxGeometry width="50" height="50" relative="1" as="geometry">
            <mxPoint x="580" y="350" as="sourcePoint" />
            <mxPoint x="490" y="350" as="targetPoint" />
          </mxGeometry>
        </mxCell>
        <mxCell id="hZ1CCM0CToP49CCM5TCr-17" value="Web&lt;br&gt;Server" style="rounded=0;whiteSpace=wrap;html=1;" vertex="1" parent="1">
          <mxGeometry x="650" y="252" width="70" height="110" as="geometry" />
        </mxCell>
        <mxCell id="hZ1CCM0CToP49CCM5TCr-18" value="Web Files" style="shape=document;whiteSpace=wrap;html=1;boundedLbl=1;" vertex="1" parent="1">
          <mxGeometry x="737" y="289.5" width="60" height="35" as="geometry" />
        </mxCell>
        <mxCell id="hZ1CCM0CToP49CCM5TCr-21" value="Server" style="text;html=1;align=center;verticalAlign=middle;resizable=0;points=[];autosize=1;strokeColor=none;fillColor=none;" vertex="1" parent="1">
          <mxGeometry x="690" y="210" width="60" height="30" as="geometry" />
        </mxCell>
        <mxCell id="hZ1CCM0CToP49CCM5TCr-22" value="TCP/IP" style="text;html=1;align=center;verticalAlign=middle;resizable=0;points=[];autosize=1;strokeColor=none;fillColor=none;" vertex="1" parent="1">
          <mxGeometry x="510" y="300" width="60" height="30" as="geometry" />
        </mxCell>
        <mxCell id="hZ1CCM0CToP49CCM5TCr-23" value="HTTP request" style="text;html=1;align=center;verticalAlign=middle;resizable=0;points=[];autosize=1;strokeColor=none;fillColor=none;" vertex="1" parent="1">
          <mxGeometry x="480" y="220" width="100" height="30" as="geometry" />
        </mxCell>
        <mxCell id="hZ1CCM0CToP49CCM5TCr-24" value="HTTP response" style="text;html=1;align=center;verticalAlign=middle;resizable=0;points=[];autosize=1;strokeColor=none;fillColor=none;" vertex="1" parent="1">
          <mxGeometry x="485" y="350" width="110" height="30" as="geometry" />
        </mxCell>
        <mxCell id="hZ1CCM0CToP49CCM5TCr-25" value="" style="rounded=0;whiteSpace=wrap;html=1;" vertex="1" parent="1">
          <mxGeometry x="120" y="480" width="120" height="60" as="geometry" />
        </mxCell>
        <mxCell id="hZ1CCM0CToP49CCM5TCr-27" value="" style="shape=trapezoid;perimeter=trapezoidPerimeter;whiteSpace=wrap;html=1;fixedSize=1;" vertex="1" parent="1">
          <mxGeometry x="100" y="540" width="160" height="40" as="geometry" />
        </mxCell>
        <mxCell id="hZ1CCM0CToP49CCM5TCr-28" value="" style="rounded=0;whiteSpace=wrap;html=1;" vertex="1" parent="1">
          <mxGeometry x="125" y="485" width="110" height="50" as="geometry" />
        </mxCell>
        <mxCell id="hZ1CCM0CToP49CCM5TCr-29" value="User" style="text;html=1;align=center;verticalAlign=middle;resizable=0;points=[];autosize=1;strokeColor=none;fillColor=none;" vertex="1" parent="1">
          <mxGeometry x="155" y="580" width="50" height="30" as="geometry" />
        </mxCell>
        <mxCell id="hZ1CCM0CToP49CCM5TCr-30" value="" style="endArrow=classic;html=1;rounded=0;" edge="1" parent="1">
          <mxGeometry width="50" height="50" relative="1" as="geometry">
            <mxPoint x="280" y="520" as="sourcePoint" />
            <mxPoint x="480" y="520" as="targetPoint" />
          </mxGeometry>
        </mxCell>
        <mxCell id="hZ1CCM0CToP49CCM5TCr-31" value="" style="swimlane;horizontal=0;whiteSpace=wrap;html=1;" vertex="1" parent="1">
          <mxGeometry x="485" y="475" width="95" height="105" as="geometry" />
        </mxCell>
        <mxCell id="hZ1CCM0CToP49CCM5TCr-35" value="" style="group" vertex="1" connectable="0" parent="1">
          <mxGeometry x="330" y="680" width="110" height="90" as="geometry" />
        </mxCell>
        <mxCell id="hZ1CCM0CToP49CCM5TCr-32" value="" style="html=1;whiteSpace=wrap;shape=isoCube2;backgroundOutline=1;isoAngle=15;" vertex="1" parent="hZ1CCM0CToP49CCM5TCr-35">
          <mxGeometry y="25.71428571428571" width="110.00000000000001" height="64.28571428571428" as="geometry" />
        </mxCell>
        <mxCell id="hZ1CCM0CToP49CCM5TCr-33" value="" style="html=1;whiteSpace=wrap;shape=isoCube2;backgroundOutline=1;isoAngle=15;" vertex="1" parent="hZ1CCM0CToP49CCM5TCr-35">
          <mxGeometry y="12.857142857142856" width="110.00000000000001" height="64.28571428571428" as="geometry" />
        </mxCell>
        <mxCell id="hZ1CCM0CToP49CCM5TCr-34" value="" style="html=1;whiteSpace=wrap;shape=isoCube2;backgroundOutline=1;isoAngle=15;" vertex="1" parent="hZ1CCM0CToP49CCM5TCr-35">
          <mxGeometry width="110.00000000000001" height="64.28571428571428" as="geometry" />
        </mxCell>
        <mxCell id="hZ1CCM0CToP49CCM5TCr-36" value="" style="endArrow=classic;html=1;rounded=0;" edge="1" parent="1">
          <mxGeometry width="50" height="50" relative="1" as="geometry">
            <mxPoint x="550" y="600" as="sourcePoint" />
            <mxPoint x="460" y="700" as="targetPoint" />
          </mxGeometry>
        </mxCell>
        <mxCell id="hZ1CCM0CToP49CCM5TCr-37" value="" style="endArrow=classic;html=1;rounded=0;" edge="1" parent="1">
          <mxGeometry width="50" height="50" relative="1" as="geometry">
            <mxPoint x="430" y="680" as="sourcePoint" />
            <mxPoint x="520" y="590" as="targetPoint" />
          </mxGeometry>
        </mxCell>
        <mxCell id="hZ1CCM0CToP49CCM5TCr-38" value="ISP DNS Server" style="text;html=1;align=center;verticalAlign=middle;resizable=0;points=[];autosize=1;strokeColor=none;fillColor=none;" vertex="1" parent="1">
          <mxGeometry x="330" y="780" width="110" height="30" as="geometry" />
        </mxCell>
      </root>
    </mxGraphModel>
  </diagram>
</mxfile>
